<?xml version="1.0" encoding="utf-8"?>
<!-- Generator: Adobe Illustrator 19.2.1, SVG Export Plug-In . SVG Version: 6.00 Build 0)  -->
<svg version="1.1" id="Layer_1" xmlns="http://www.w3.org/2000/svg" xmlns:xlink="http://www.w3.org/1999/xlink" x="0px" y="0px"
	 viewBox="0 0 128 128" style="enable-background:new 0 0 128 128;" xml:space="preserve">
<style type="text/css">
	.st0{opacity:0.3;fill:#A5A5A5;}
	.st1{fill:url(#SVGID_1_);}
	.st2{fill:#FFFFFF;}
</style>
<path class="st0" d="M125,35.8c-0.5-2.3-1.2-4.6-2.1-6.7c-0.9-2.1-2-4.2-3.3-6.1c-1.3-1.9-2.7-3.7-4.4-5.3c-1.6-1.6-3.4-3.1-5.3-4.4
	c-1.9-1.3-4-2.4-6.1-3.3c-2.2-0.9-4.4-1.6-6.7-2.1c-2.4-0.5-4.8-0.7-7.2-0.7c-2.4,0-4.8,0.2-7.2,0.7c-2.3,0.5-4.6,1.2-6.7,2.1
	c-2.1,0.9-4.2,2-6.1,3.3c-1.9,1.3-3.7,2.7-5.3,4.4s-3.1,3.4-4.4,5.3c-1.3,1.9-2.4,4-3.3,6.1c-0.9,2.2-1.6,4.4-2.1,6.7
	c-0.5,2.4-0.7,4.8-0.7,7.2c0,0.3,0,0.6,0,0.8L33.8,23.2C33,22.5,32,22.1,31,22.1c0,0-0.1,0-0.2,0l-18.6,0.7c-1,0-2,0.5-2.7,1.2
	c-0.7,0.7-1.1,1.7-1.1,2.7l0,20.4c0,1,0.4,2,1.1,2.8L32.7,73L9.4,96.3c-0.7,0.7-1.2,1.8-1.1,2.8l0.2,20.3c0,1,0.4,2,1.2,2.8
	c0.7,0.7,1.7,1.1,2.7,1.1c0,0,0,0,0.1,0l19.7-0.4c1,0,2-0.4,2.7-1.1L45,111.6l12.8-0.4c1,0,2-0.5,2.7-1.2c0.7-0.7,1.1-1.7,1.1-2.7
	l0.1-5.3l19.8,19.8c0.7,0.7,1.7,1.1,2.8,1.1c0,0,0,0,0,0l20.3-0.2c1,0,2-0.4,2.8-1.2c0.7-0.7,1.1-1.8,1.1-2.8L108,99
	c0-1-0.4-2-1.1-2.7L89.2,78.7c0.3,0,0.6,0,0.8,0c2.4,0,4.8-0.2,7.2-0.7c2.3-0.5,4.6-1.2,6.7-2.1c2.1-0.9,4.2-2,6.1-3.3
	c1.9-1.3,3.7-2.7,5.3-4.4c1.6-1.6,3.1-3.4,4.4-5.3c1.3-1.9,2.4-4,3.3-6.1c0.9-2.2,1.6-4.4,2.1-6.7c0.5-2.4,0.7-4.8,0.7-7.2
	C125.8,40.5,125.5,38.1,125,35.8z"/>
<g>
	
		<linearGradient id="SVGID_1_" gradientUnits="userSpaceOnUse" x1="-10.5088" y1="139.0078" x2="-10.4773" y2="139.0078" gradientTransform="matrix(2965.5571 -2965.5571 2965.5571 2965.5571 -381057.9063 -443287.8438)">
		<stop  offset="0" style="stop-color:#E65100"/>
		<stop  offset="1" style="stop-color:#FF9800"/>
	</linearGradient>
	<path class="st1" d="M13.4,97.3l27.5-27.5L13.6,42.4l0-15.6l13.7-0.5l28.5,28.5l5.3-5.3l-0.6-2c-0.7-2.5-1.1-5.2-1.1-7.9
		c0-3.8,0.7-7.5,2.2-11c1.4-3.4,3.5-6.4,6.1-9c2.6-2.6,5.6-4.6,9-6.1c3.5-1.5,7.2-2.2,11-2.2c3.8,0,7.5,0.7,11,2.2
		c3.4,1.4,6.4,3.5,9,6.1c2.6,2.6,4.6,5.6,6.1,9c1.5,3.5,2.2,7.2,2.2,11c0,3.8-0.7,7.5-2.2,11c-1.4,3.4-3.5,6.4-6.1,9
		c-2.6,2.6-5.6,4.6-9,6.1c-3.5,1.5-7.2,2.2-11,2.2c-3.6,0-7-0.6-10.3-1.9l-2.1-0.8l-4.5,4.5l27.5,27.5l0.3,14.8l-15.3,0.2L55.9,84.7
		l-3.7,3.7L52,100.6L39.6,101l-11.3,11.3l-14.8,0.3L13.4,97.3z"/>
	<path d="M105.9,35.3c0.7,5.1-3,11.9-9.6,12.3c-6.8,0.4-11.3-5.2-11.7-10.9s4.1-10.7,10-11S105.1,29.6,105.9,35.3z"/>
	<ellipse transform="matrix(0.7071 -0.7071 0.7071 0.7071 2.9565 77.3402)" class="st2" cx="94.8" cy="35.1" rx="8.2" ry="8.2"/>
	<path class="st2" d="M82,115.7l20.3-0.2l-0.4-19.7L75.8,69.7l0.4-0.4c3.6,1.4,7.5,2.2,11.6,2.2c17.6,0,31.8-14.2,31.8-31.8
		c0-8.8-3.6-16.7-9.3-22.5c-5.8-5.8-13.7-9.3-22.5-9.3C70.2,7.9,56,22.1,56,39.7c0,3.1,0.4,6,1.2,8.8l-1.3,1.3L28.7,22.7l-18.6,0.7
		l0,20.4L36,69.7L9.9,95.8l0.2,20.3l19.7-0.4l11.3-11.3l14.4-0.5l0.2-14.1l0.2-0.2L82,115.7z M48.6,97.2l-7.7,0.3l-2.7,0.1l-1.9,1.9
		l-9.3,9.3L17,109l-0.1-10.3l24-24l4.9-4.9l-4.9-4.9L17.1,41l0-10.8l8.9-0.3l25,25l4.9,4.9l4.9-4.9l1.3-1.3l2.9-2.9l-1.1-4
		c-0.6-2.2-1-4.6-1-6.9c0-3.4,0.7-6.6,1.9-9.7c0.6-1.5,1.4-2.9,2.3-4.2c0.9-1.3,1.9-2.6,3-3.7c1.1-1.1,2.4-2.1,3.7-3
		c1.3-0.9,2.7-1.7,4.2-2.3c3.1-1.3,6.3-1.9,9.7-1.9c3.4,0,6.6,0.7,9.7,1.9c1.5,0.6,2.9,1.4,4.2,2.3c1.3,0.9,2.6,1.9,3.7,3
		c1.1,1.1,2.1,2.4,3,3.7c0.9,1.3,1.7,2.7,2.3,4.2c1.3,3.1,1.9,6.3,1.9,9.7c0,3.4-0.7,6.6-1.9,9.7c-0.6,1.5-1.4,2.9-2.3,4.2
		c-0.9,1.3-1.9,2.6-3,3.7c-1.1,1.1-2.4,2.1-3.7,3c-1.3,0.9-2.7,1.7-4.2,2.3c-3.1,1.3-6.3,1.9-9.7,1.9c-3.1,0-6.2-0.6-9-1.7l-4.2-1.7
		l-3.2,3.2l-0.4,0.4l-4.9,4.9l4.9,4.9l24.1,24.1l0.2,9.8l-10.3,0.1L58.5,82.4l-0.1,0l-9.7,0.2L48.6,97.2z"/>
	<path d="M87.8,8.2c8.8,0,16.7,3.6,22.5,9.3c5.8,5.8,9.3,13.7,9.3,22.5c0,17.6-14.2,31.8-31.8,31.8h0c-4.1,0-8-0.8-11.6-2.2L75.8,70
		l26.1,26.1l0.4,19.7L82,116L55.9,89.9l-0.2,0.2l-0.2,14.1l-14.4,0.5L29.8,116l-19.7,0.4L9.9,96.1L36,70L10.1,44.1l0-20.4L28.7,23
		l27.2,27.2l1.3-1.3C56.4,46,56,43,56,40C56,22.4,70.2,8.2,87.8,8.2 M87.8,4.3c-2.4,0-4.8,0.2-7.2,0.7c-2.3,0.5-4.6,1.2-6.7,2.1
		c-2.1,0.9-4.2,2-6.1,3.3c-1.9,1.3-3.7,2.7-5.3,4.4c-1.6,1.6-3.1,3.4-4.4,5.3c-1.3,1.9-2.4,4-3.3,6.1c-0.9,2.2-1.6,4.4-2.1,6.7
		c-0.5,2.4-0.7,4.8-0.7,7.2c0,0.3,0,0.6,0,0.8L31.5,20.2c-0.7-0.7-1.7-1.1-2.8-1.1c-0.1,0-0.1,0-0.2,0L10,19.8c-1,0-2,0.5-2.7,1.2
		c-0.7,0.7-1.1,1.7-1.1,2.7l0,20.4c0,1,0.4,2,1.1,2.8L30.5,70L7.2,93.4C6.4,94.1,6,95.1,6,96.2l0.2,20.3c0,1,0.4,2,1.2,2.8
		c0.7,0.7,1.7,1.1,2.7,1.1c0,0,0,0,0.1,0l19.7-0.4c1,0,2-0.4,2.7-1.1l10.2-10.2l12.8-0.4c1,0,2-0.5,2.7-1.2c0.7-0.7,1.1-1.7,1.1-2.7
		l0.1-5.3l19.8,19.8c0.7,0.7,1.7,1.1,2.8,1.1c0,0,0,0,0,0l20.3-0.2c1,0,2-0.4,2.8-1.2c0.7-0.7,1.1-1.8,1.1-2.8L105.8,96
		c0-1-0.4-2-1.1-2.7L87,75.7c0.3,0,0.6,0,0.8,0c2.4,0,4.8-0.2,7.2-0.7c2.3-0.5,4.6-1.2,6.7-2.1c2.1-0.9,4.2-2,6.1-3.3
		c1.9-1.3,3.7-2.7,5.3-4.4c1.6-1.6,3.1-3.4,4.4-5.3c1.3-1.9,2.4-4,3.3-6.1c0.9-2.2,1.6-4.4,2.1-6.7c0.5-2.4,0.7-4.8,0.7-7.2
		s-0.2-4.8-0.7-7.2c-0.5-2.3-1.2-4.6-2.1-6.7c-0.9-2.1-2-4.2-3.3-6.1c-1.3-1.9-2.7-3.7-4.4-5.3c-1.6-1.6-3.4-3.1-5.3-4.4
		c-1.9-1.3-4-2.4-6.1-3.3C99.5,6.2,97.3,5.5,95,5C92.6,4.5,90.2,4.3,87.8,4.3z"/>
</g>
</svg>
