<svg id="Layer_2" data-name="Layer 2" xmlns="http://www.w3.org/2000/svg" xmlns:xlink="http://www.w3.org/1999/xlink" viewBox="0 0 128 128"><defs><style>.cls-1{fill:none;}.cls-2{fill:#d1d1d1;opacity:0.6;isolation:isolate;}.cls-3{clip-path:url(#clip-path);}.cls-4{fill:url(#linear-gradient);}.cls-5{fill:url(#linear-gradient-2);}.cls-6{fill:url(#linear-gradient-3);}.cls-7{fill:#d40;opacity:0.6;}</style><clipPath id="clip-path"><path class="cls-1" d="M119.35,124H4.75a4.8,4.8,0,0,1-4.8-4.8V4.8A4.87,4.87,0,0,1,4.75,0h114.5a4.8,4.8,0,0,1,4.8,4.8V119.3A4.69,4.69,0,0,1,119.35,124Z"/></clipPath><linearGradient id="linear-gradient" y1="124.05" x2="124.05" gradientUnits="userSpaceOnUse"><stop offset="0" stop-color="#e23f00"/><stop offset="1" stop-color="#ec6200"/></linearGradient><linearGradient id="linear-gradient-2" x1="118.03" y1="66.05" x2="12.35" y2="66.05" gradientUnits="userSpaceOnUse"><stop offset="0" stop-color="#990025"/><stop offset="1" stop-color="#990025" stop-opacity="0.5"/></linearGradient><linearGradient id="linear-gradient-3" x1="8.92" y1="50.86" x2="106.37" y2="50.86" gradientTransform="translate(14.9 3.54) rotate(8.82)" gradientUnits="userSpaceOnUse"><stop offset="0" stop-color="#ffbd00"/><stop offset="1" stop-color="#ffa200"/></linearGradient></defs><title>appGrid</title><path class="cls-2" d="M120.75,128H10.45a7.28,7.28,0,0,1-7.3-7.3V10.4a7.28,7.28,0,0,1,7.3-7.3h110.3a7.28,7.28,0,0,1,7.3,7.3V120.7A7.21,7.21,0,0,1,120.75,128Z"/><g class="cls-3"><rect class="cls-4" width="124.05" height="124.05"/><path class="cls-5" d="M114.88,32.56a1.6,1.6,0,0,0-.95-1.29L87.25,19.49a1.6,1.6,0,0,0-1.59.17L62.13,36.88a1.6,1.6,0,0,0-.65,1.46l1.74,16.09a1.6,1.6,0,0,1-.65,1.46L16.32,89.74a3.43,3.43,0,0,0-1.38,2.33l-2.58,15.26a1.55,1.55,0,0,0,1.19,1.61l7.49,3.3h0c1.27,0.54,3,.79,4,0l4-2.89a1.15,1.15,0,0,0,.37-1.36l0,0,0,0c-1.49-2-.71-5.12,1.72-6.91s5.62-1.58,7.1.45v0l0,0a1.15,1.15,0,0,0,1.41.06L43.27,99a1.15,1.15,0,0,0,.37-1.36l0,0,0,0c-1.49-2-.71-5.12,1.73-6.91s5.62-1.58,7.1.45v0l0,0a1.15,1.15,0,0,0,1.41.06l3.5-2.56a1.15,1.15,0,0,0,.37-1.36l0,0,0,0c-1.49-2-.71-5.12,1.72-6.91s5.62-1.58,7.1.45v0l0,0a1.15,1.15,0,0,0,1.41.06l5.36-3.92a1.15,1.15,0,0,0,.37-1.36h0a1.62,1.62,0,0,1,.66-1.89,1.67,1.67,0,0,1,1.68-.19h0l10.23,4.54,5.73,2.53a1.6,1.6,0,0,0,1.59-.17L117.37,63a1.6,1.6,0,0,0,.65-1.46ZM95.68,30.79a0.3,0.3,0,0,1,.42-0.27L108,35.76a2,2,0,0,1,.86,1.18l1.33,12.47a0.3,0.3,0,0,1-.38.31L95.68,45.46a0.3,0.3,0,0,1-.21-0.29ZM88.61,46.52a0.29,0.29,0,0,1-.53.17l-8.5-11.62a2,2,0,0,1,.21-2.58l6.91-5.06a1.9,1.9,0,0,1,1.89-.21,0.5,0.5,0,0,1,.3.46Zm21.58,13.23-6.81,5a2,2,0,0,1-2.52-.59L92,52.05a0.3,0.3,0,0,1,.32-0.46l18.19,5.49a0.78,0.78,0,0,1,.55.67A2.19,2.19,0,0,1,110.19,59.75Z"/><path class="cls-6" d="M111.19,27.15a1.6,1.6,0,0,0-.95-1.29L83.56,14.08a1.6,1.6,0,0,0-1.59.17L58.44,31.47a1.6,1.6,0,0,0-.65,1.46L59.53,49a1.6,1.6,0,0,1-.65,1.46L12.63,84.32a3.43,3.43,0,0,0-1.38,2.33L8.67,101.91a1.55,1.55,0,0,0,1.19,1.61l7.49,3.3h0c1.27,0.54,3,.79,4,0l4-2.89a1.15,1.15,0,0,0,.37-1.36l0,0,0,0c-1.49-2-.71-5.12,1.72-6.91s5.62-1.58,7.1.45v0l0,0a1.15,1.15,0,0,0,1.41.06l3.5-2.56A1.15,1.15,0,0,0,40,92.18l0,0,0,0c-1.49-2-.71-5.12,1.73-6.91s5.62-1.58,7.1.45v0l0,0a1.15,1.15,0,0,0,1.41.06l3.5-2.56a1.15,1.15,0,0,0,.37-1.36l0,0,0,0c-1.49-2-.71-5.12,1.72-6.91s5.62-1.58,7.1.45v0l0,0a1.15,1.15,0,0,0,1.41.06l5.36-3.92A1.15,1.15,0,0,0,70.24,70h0a1.62,1.62,0,0,1,.66-1.89,1.67,1.67,0,0,1,1.68-.19h0l10.23,4.54L88.55,75a1.6,1.6,0,0,0,1.59-.17L113.68,57.6a1.6,1.6,0,0,0,.65-1.46ZM92,25.38a0.3,0.3,0,0,1,.42-0.27l11.89,5.24a2,2,0,0,1,.86,1.18L106.49,44a0.3,0.3,0,0,1-.38.31L92,40a0.3,0.3,0,0,1-.21-0.29ZM84.92,41.1a0.29,0.29,0,0,1-.53.17l-8.5-11.62a2,2,0,0,1,.21-2.58L83,22a1.9,1.9,0,0,1,1.89-.21,0.5,0.5,0,0,1,.3.46ZM106.5,54.34l-6.81,5a2,2,0,0,1-2.52-.59L88.32,46.64a0.3,0.3,0,0,1,.32-0.46l18.19,5.49a0.78,0.78,0,0,1,.55.67A2.19,2.19,0,0,1,106.5,54.34Z"/><rect class="cls-7" x="-1.08" y="79.01" width="77.32" height="4.02" rx="0.88" ry="0.88" transform="translate(-40.58 37.81) rotate(-36.18)"/></g></svg>