<?xml version="1.0" encoding="utf-8"?>
<!-- Generator: Adobe Illustrator 19.2.1, SVG Export Plug-In . SVG Version: 6.00 Build 0)  -->
<svg version="1.1" id="Layer_1" xmlns="http://www.w3.org/2000/svg" xmlns:xlink="http://www.w3.org/1999/xlink" x="0px" y="0px"
	 viewBox="0 0 24 24" style="enable-background:new 0 0 24 24;" xml:space="preserve">
<style type="text/css">
	.st0{fill:url(#SVGID_1_);}
	.st1{fill:#FFFFFF;}
</style>
<g>
	
		<linearGradient id="SVGID_1_" gradientUnits="userSpaceOnUse" x1="-62.4955" y1="87.0082" x2="-62.4893" y2="87.0082" gradientTransform="matrix(2965.5571 -2965.5571 2965.5571 2965.5571 -72691.9609 -443339.8438)">
		<stop  offset="0" style="stop-color:#E65100"/>
		<stop  offset="1" style="stop-color:#FF9800"/>
	</linearGradient>
	<path class="st0" d="M1.9,18.9l5.4-5.4L1.9,8.1l0-3.1l2.7-0.1l5.6,5.6l1-1l-0.1-0.4c-0.1-0.5-0.2-1-0.2-1.6c0-0.8,0.1-1.5,0.4-2.2
		c0.3-0.7,0.7-1.3,1.2-1.8s1.1-0.9,1.8-1.2c0.7-0.3,1.4-0.4,2.2-0.4c0.8,0,1.5,0.1,2.2,0.4c0.7,0.3,1.3,0.7,1.8,1.2
		c0.5,0.5,0.9,1.1,1.2,1.8C22,6,22.2,6.8,22.2,7.5c0,0.8-0.1,1.5-0.4,2.2c-0.3,0.7-0.7,1.3-1.2,1.8c-0.5,0.5-1.1,0.9-1.8,1.2
		c-0.7,0.3-1.4,0.4-2.2,0.4c-0.7,0-1.4-0.1-2-0.4l-0.4-0.2l-0.9,0.9l5.4,5.4l0.1,2.9l-3,0l-5.4-5.4l-0.7,0.7l0,2.4l-2.5,0.1
		l-2.2,2.2l-2.9,0.1L1.9,18.9z"/>
	<path d="M20.2,6.7c0.1,1-0.6,2.3-1.9,2.4c-1.3,0.1-2.2-1-2.3-2.2c-0.1-1.1,0.8-2.1,2-2.2C19.1,4.7,20,5.6,20.2,6.7z"/>
	<ellipse transform="matrix(0.7071 -0.7071 0.7071 0.7071 0.5751 14.6533)" class="st1" cx="18" cy="6.6" rx="1.6" ry="1.6"/>
	<path class="st1" d="M15.4,22.6l4,0l-0.1-3.9l-5.1-5.1l0.1-0.1c0.7,0.3,1.5,0.4,2.3,0.4c3.5,0,6.3-2.8,6.3-6.3
		c0-1.7-0.7-3.3-1.8-4.4c-1.1-1.1-2.7-1.8-4.4-1.8c-3.5,0-6.3,2.8-6.3,6.3c0,0.6,0.1,1.2,0.2,1.7l-0.3,0.3L4.9,4.2L1.2,4.3l0,4
		l5.1,5.1l-5.1,5.1l0,4l3.9-0.1l2.2-2.2l2.8-0.1l0-2.8l0,0L15.4,22.6z M8.8,18.9l-1.5,0.1l-0.5,0l-0.4,0.4l-1.8,1.8l-1.9,0l0-2
		l4.7-4.7l1-1l-1-1L2.6,7.8l0-2.1l1.8-0.1l4.9,4.9l1,1l1-1l0.3-0.3l0.6-0.6l-0.2-0.8c-0.1-0.4-0.2-0.9-0.2-1.4
		c0-0.7,0.1-1.3,0.4-1.9c0.1-0.3,0.3-0.6,0.5-0.8c0.2-0.3,0.4-0.5,0.6-0.7c0.2-0.2,0.5-0.4,0.7-0.6c0.3-0.2,0.5-0.3,0.8-0.5
		c0.6-0.3,1.2-0.4,1.9-0.4c0.7,0,1.3,0.1,1.9,0.4c0.3,0.1,0.6,0.3,0.8,0.5c0.3,0.2,0.5,0.4,0.7,0.6c0.2,0.2,0.4,0.5,0.6,0.7
		c0.2,0.3,0.3,0.5,0.5,0.8c0.3,0.6,0.4,1.2,0.4,1.9c0,0.7-0.1,1.3-0.4,1.9c-0.1,0.3-0.3,0.6-0.5,0.8c-0.2,0.3-0.4,0.5-0.6,0.7
		c-0.2,0.2-0.5,0.4-0.7,0.6c-0.3,0.2-0.5,0.3-0.8,0.5c-0.6,0.3-1.2,0.4-1.9,0.4c-0.6,0-1.2-0.1-1.8-0.3L14,11.8l-0.6,0.6l-0.1,0.1
		l-1,1l1,1l4.8,4.8l0,1.9l-2,0L10.8,16l0,0l-1.9,0L8.8,18.9z"/>
	<path d="M16.6,1.3c1.7,0,3.3,0.7,4.4,1.8c1.1,1.1,1.8,2.7,1.8,4.4c0,3.5-2.8,6.3-6.3,6.3h0c-0.8,0-1.6-0.2-2.3-0.4l-0.1,0.1
		l5.1,5.1l0.1,3.9l-4,0l-5.1-5.1l0,0l0,2.8l-2.8,0.1l-2.2,2.2l-3.9,0.1l0-4l5.1-5.1L1.2,8.4l0-4l3.7-0.1l5.4,5.4l0.3-0.3
		c-0.2-0.6-0.2-1.1-0.2-1.7C10.3,4.1,13.1,1.3,16.6,1.3 M16.6,0.5c-0.5,0-1,0-1.4,0.1c-0.5,0.1-0.9,0.2-1.3,0.4
		c-0.4,0.2-0.8,0.4-1.2,0.7c-0.4,0.3-0.7,0.5-1,0.9c-0.3,0.3-0.6,0.7-0.9,1c-0.3,0.4-0.5,0.8-0.7,1.2C9.9,5.3,9.8,5.7,9.7,6.2
		C9.6,6.6,9.5,7.1,9.5,7.6c0,0.1,0,0.1,0,0.2L5.5,3.7C5.3,3.6,5.1,3.5,4.9,3.5c0,0,0,0,0,0L1.2,3.6C1,3.6,0.8,3.7,0.7,3.8
		C0.6,4,0.5,4.2,0.5,4.4l0,4c0,0.2,0.1,0.4,0.2,0.5l4.6,4.6l-4.6,4.6c-0.1,0.1-0.2,0.3-0.2,0.6l0,4c0,0.2,0.1,0.4,0.2,0.5
		c0.1,0.1,0.3,0.2,0.5,0.2c0,0,0,0,0,0l3.9-0.1c0.2,0,0.4-0.1,0.5-0.2l2-2l2.5-0.1c0.2,0,0.4-0.1,0.5-0.2c0.1-0.1,0.2-0.3,0.2-0.5
		l0-1l3.9,3.9c0.1,0.1,0.3,0.2,0.5,0.2c0,0,0,0,0,0l4,0c0.2,0,0.4-0.1,0.5-0.2c0.1-0.1,0.2-0.3,0.2-0.6l-0.1-3.9
		c0-0.2-0.1-0.4-0.2-0.5l-3.5-3.5c0.1,0,0.1,0,0.2,0c0.5,0,1,0,1.4-0.1c0.5-0.1,0.9-0.2,1.3-0.4c0.4-0.2,0.8-0.4,1.2-0.7
		c0.4-0.3,0.7-0.5,1-0.9c0.3-0.3,0.6-0.7,0.9-1c0.3-0.4,0.5-0.8,0.7-1.2c0.2-0.4,0.3-0.9,0.4-1.3c0.1-0.5,0.1-0.9,0.1-1.4
		s0-1-0.1-1.4c-0.1-0.5-0.2-0.9-0.4-1.3c-0.2-0.4-0.4-0.8-0.7-1.2c-0.3-0.4-0.5-0.7-0.9-1c-0.3-0.3-0.7-0.6-1-0.9
		c-0.4-0.3-0.8-0.5-1.2-0.7c-0.4-0.2-0.9-0.3-1.3-0.4C17.5,0.6,17.1,0.5,16.6,0.5z"/>
</g>
</svg>
