<svg id="Layer_1" data-name="Layer 1" xmlns="http://www.w3.org/2000/svg" xmlns:xlink="http://www.w3.org/1999/xlink" viewBox="0 0 24 24"><defs><style>.cls-1{fill:none;}.cls-2{clip-path:url(#clip-path);}.cls-3{fill:url(#linear-gradient);}.cls-4{fill:url(#linear-gradient-2);}.cls-5{fill:url(#linear-gradient-3);}.cls-6{fill:#d40;opacity:0.6;isolation:isolate;}</style><clipPath id="clip-path"><rect class="cls-1" y="0.01" width="24" height="24" rx="4.02" ry="4.02"/></clipPath><linearGradient id="linear-gradient" y1="1.99" x2="24" y2="25.99" gradientTransform="matrix(1, 0, 0, -1, 0, 26)" gradientUnits="userSpaceOnUse"><stop offset="0" stop-color="#e23f00"/><stop offset="1" stop-color="#ec6200"/></linearGradient><linearGradient id="linear-gradient-2" x1="22.83" y1="13.21" x2="2.39" y2="13.21" gradientTransform="matrix(1, 0, 0, -1, 0, 26)" gradientUnits="userSpaceOnUse"><stop offset="0" stop-color="#990025"/><stop offset="1" stop-color="#990025" stop-opacity="0.5"/></linearGradient><linearGradient id="linear-gradient-3" x1="39.08" y1="125.22" x2="57.94" y2="125.22" gradientTransform="matrix(0.99, 0.15, 0.15, -0.99, -54.74, 128.43)" gradientUnits="userSpaceOnUse"><stop offset="0" stop-color="#ffbd00"/><stop offset="1" stop-color="#ffa200"/></linearGradient></defs><title>grain-01-01</title><g class="cls-2"><rect class="cls-3" y="0.01" width="24" height="24"/><path class="cls-4" d="M22.23,6.31A0.31,0.31,0,0,0,22,6.06L16.88,3.78a0.31,0.31,0,0,0-.31,0L12,7.15a0.31,0.31,0,0,0-.12.28l0.34,3.11a0.31,0.31,0,0,1-.12.28l-9,6.55a0.66,0.66,0,0,0-.27.45l-0.5,3a0.3,0.3,0,0,0,.23.31l1.45,0.64h0a0.84,0.84,0,0,0,.78,0l0.76-.56a0.22,0.22,0,0,0,.07-0.26h0A1,1,0,0,1,6,19.56a1,1,0,0,1,1.37.09h0a0.22,0.22,0,0,0,.27,0l0.68-.5a0.22,0.22,0,0,0,.07-0.26h0a1,1,0,0,1,.33-1.34,1,1,0,0,1,1.37.09h0a0.22,0.22,0,0,0,.27,0l0.68-.5a0.22,0.22,0,0,0,.07-0.26h0a1,1,0,0,1,.33-1.34,1,1,0,0,1,1.37.09h0a0.22,0.22,0,0,0,.27,0l1-.76a0.22,0.22,0,0,0,.07-0.26h0a0.33,0.33,0,0,1,.45-0.4h0l2,0.88,1.11,0.49a0.31,0.31,0,0,0,.31,0l4.56-3.37a0.31,0.31,0,0,0,.12-0.28ZM18.51,6a0.06,0.06,0,0,1,.06-0.06h0l2.3,1a0.4,0.4,0,0,1,.16.23l0.26,2.41a0.06,0.06,0,0,1-.05.06h0l-2.72-.82a0.06,0.06,0,0,1,0-.06ZM17.14,9A0.06,0.06,0,0,1,17,9L15.4,6.8a0.39,0.39,0,0,1,0-.5l1.34-1a0.37,0.37,0,0,1,.36,0,0.1,0.1,0,0,1,.06.09Zm4.17,2.56-1.32,1a0.39,0.39,0,0,1-.49-0.11L17.8,10.08a0.06,0.06,0,0,1,0-.08h0l3.52,1.06a0.16,0.16,0,0,1,.11.13,0.42,0.42,0,0,1-.17.39h0Z"/><path class="cls-5" d="M21.51,5.26A0.31,0.31,0,0,0,21.33,5L16.16,2.73a0.31,0.31,0,0,0-.31,0L11.31,6.1a0.31,0.31,0,0,0-.12.28L11.52,9.5a0.31,0.31,0,0,1-.13.28l-9,6.56a0.66,0.66,0,0,0-.27.45l-0.5,3a0.3,0.3,0,0,0,.23.31l1.45,0.64h0a0.84,0.84,0,0,0,.78,0l0.76-.56A0.22,0.22,0,0,0,5,19.86H5a1,1,0,0,1,.33-1.34,1,1,0,0,1,1.37.09h0a0.22,0.22,0,0,0,.27,0l0.68-.5a0.22,0.22,0,0,0,.07-0.26h0a1,1,0,0,1,.33-1.34,1,1,0,0,1,1.37.09h0a0.22,0.22,0,0,0,.27,0l0.68-.5a0.22,0.22,0,0,0,.07-0.26h0a1,1,0,0,1,.33-1.34,1,1,0,0,1,1.37.09h0a0.22,0.22,0,0,0,.27,0l1-.76a0.22,0.22,0,0,0,.07-0.26h0A0.33,0.33,0,0,1,14,13.2h0l2,0.88,1.11,0.49a0.31,0.31,0,0,0,.31,0L22,11.2a0.31,0.31,0,0,0,.12-0.28ZM17.8,4.92a0.06,0.06,0,0,1,.06-0.06h0l2.3,1a0.4,0.4,0,0,1,.16.23L20.6,8.52a0.06,0.06,0,0,1-.05.06h0l-2.73-.82a0.06,0.06,0,0,1,0-.06ZM16.43,8a0.06,0.06,0,0,1-.1,0L14.68,5.75a0.39,0.39,0,0,1,0-.5l1.34-1a0.37,0.37,0,0,1,.36,0,0.1,0.1,0,0,1,.06.09Zm4.17,2.56-1.32,1a0.39,0.39,0,0,1-.49-0.11L17.09,9a0.06,0.06,0,0,1,0-.08h0L20.67,10a0.16,0.16,0,0,1,.11.13,0.42,0.42,0,0,1-.17.38h0Z"/><rect class="cls-6" x="-0.21" y="15.3" width="14.96" height="0.78" rx="0.14" ry="0.14" transform="translate(-7.86 7.32) rotate(-36.18)"/></g></svg>