<svg id="Layer_1" data-name="Layer 1" xmlns="http://www.w3.org/2000/svg" xmlns:xlink="http://www.w3.org/1999/xlink" viewBox="0 0 150 150"><defs><style>.cls-1{fill:url(#linear-gradient);}.cls-2{fill:url(#linear-gradient-2);}.cls-3{fill:url(#linear-gradient-3);}.cls-4{fill:#d40;opacity:0.6;}</style><linearGradient id="linear-gradient" y1="150" x2="150" gradientUnits="userSpaceOnUse"><stop offset="0" stop-color="#e23f00"/><stop offset="1" stop-color="#ec6200"/></linearGradient><linearGradient id="linear-gradient-2" x1="142.72" y1="79.86" x2="14.94" y2="79.86" gradientUnits="userSpaceOnUse"><stop offset="0" stop-color="#990025"/><stop offset="1" stop-color="#990025" stop-opacity="0.5"/></linearGradient><linearGradient id="linear-gradient-3" x1="12.42" y1="63.57" x2="130.26" y2="63.57" gradientTransform="translate(16.71 1.98) rotate(8.82)" gradientUnits="userSpaceOnUse"><stop offset="0" stop-color="#ffbd00"/><stop offset="1" stop-color="#ffa200"/></linearGradient></defs><title>market</title><rect class="cls-1" width="150" height="150"/><path class="cls-2" d="M138.91,39.37a1.94,1.94,0,0,0-1.14-1.56L105.51,23.57a1.94,1.94,0,0,0-1.92.21L75.12,44.6a1.94,1.94,0,0,0-.78,1.77l2.11,19.45a1.94,1.94,0,0,1-.78,1.77L19.73,108.51a4.14,4.14,0,0,0-1.66,2.81l-3.12,18.45a1.87,1.87,0,0,0,1.44,1.94l9.06,4h0c1.53,0.66,3.6.95,4.89,0l4.78-3.5a1.39,1.39,0,0,0,.45-1.65l0.06,0,0,0c-1.8-2.46-.86-6.19,2.09-8.35s6.79-1.91,8.59.54l0,0,0.06,0a1.39,1.39,0,0,0,1.71.07l4.24-3.1a1.39,1.39,0,0,0,.45-1.65l0.06,0,0,0c-1.8-2.46-.86-6.19,2.09-8.35s6.79-1.91,8.59.54l0,0,0.06,0a1.39,1.39,0,0,0,1.71.07l4.24-3.1a1.39,1.39,0,0,0,.45-1.65l0.06,0,0,0c-1.8-2.46-.86-6.19,2.09-8.35s6.79-1.91,8.59.54l0,0,0.06,0a1.39,1.39,0,0,0,1.71.07l6.49-4.74a1.39,1.39,0,0,0,.45-1.65h0a2,2,0,0,1,.79-2.29,2,2,0,0,1,2-.23h0l12.37,5.49,6.93,3.06a1.94,1.94,0,0,0,1.92-.21L141.92,76.2a1.94,1.94,0,0,0,.78-1.77ZM115.7,37.23a0.36,0.36,0,0,1,.5-0.32l14.38,6.33a2.48,2.48,0,0,1,1,1.42l1.61,15.07a0.36,0.36,0,0,1-.46.38L115.7,55a0.36,0.36,0,0,1-.25-0.35Zm-8.55,19a0.35,0.35,0,0,1-.64.2L96.23,42.4a2.41,2.41,0,0,1,.25-3.12l8.36-6.12a2.3,2.3,0,0,1,2.28-.25,0.6,0.6,0,0,1,.36.56Zm26.09,16-8.24,6a2.41,2.41,0,0,1-3.05-.71L111.26,62.94a0.36,0.36,0,0,1,.39-0.55l22,6.64a1,1,0,0,1,.67.81A2.65,2.65,0,0,1,133.24,72.25Z"/><path class="cls-3" d="M134.45,32.83a1.94,1.94,0,0,0-1.14-1.56L101,17a1.94,1.94,0,0,0-1.92.21L70.66,38.05a1.94,1.94,0,0,0-.78,1.77L72,59.28A1.94,1.94,0,0,1,71.21,61L15.27,102a4.14,4.14,0,0,0-1.66,2.81l-3.12,18.45a1.87,1.87,0,0,0,1.44,1.94l9.06,4h0c1.53,0.66,3.6.95,4.89,0l4.78-3.5a1.39,1.39,0,0,0,.45-1.65l0.06,0,0,0c-1.8-2.46-.86-6.19,2.09-8.35s6.79-1.91,8.59.54l0,0,0.06,0a1.39,1.39,0,0,0,1.71.07l4.24-3.1a1.39,1.39,0,0,0,.45-1.65l0.06,0,0,0c-1.8-2.46-.86-6.19,2.09-8.35s6.79-1.91,8.59.54l0,0,0.06,0a1.39,1.39,0,0,0,1.71.07l4.24-3.1a1.39,1.39,0,0,0,.45-1.65l0.06,0,0,0c-1.8-2.46-.86-6.19,2.09-8.35s6.79-1.91,8.59.54l0,0,0.06,0a1.39,1.39,0,0,0,1.71.07l6.49-4.74a1.39,1.39,0,0,0,.45-1.65h0a2,2,0,0,1,.79-2.29,2,2,0,0,1,2-.23h0l12.37,5.49,6.93,3.06a1.94,1.94,0,0,0,1.92-.21l28.46-20.82a1.94,1.94,0,0,0,.78-1.77Zm-23.21-2.14a0.36,0.36,0,0,1,.5-0.32l14.38,6.33a2.48,2.48,0,0,1,1,1.42l1.61,15.07a0.36,0.36,0,0,1-.46.38l-17.07-5.15a0.36,0.36,0,0,1-.25-0.35Zm-8.55,19a0.35,0.35,0,0,1-.64.2L91.77,35.85A2.41,2.41,0,0,1,92,32.73l8.36-6.12a2.3,2.3,0,0,1,2.28-.25,0.6,0.6,0,0,1,.36.56Zm26.09,16-8.24,6a2.41,2.41,0,0,1-3.05-.71L106.8,56.4a0.36,0.36,0,0,1,.39-0.55l22,6.64a1,1,0,0,1,.67.81A2.65,2.65,0,0,1,128.78,65.7Z"/><rect class="cls-4" x="-1.3" y="95.54" width="93.49" height="4.87" rx="0.88" ry="0.88" transform="translate(-49.07 45.72) rotate(-36.18)"/></svg>