<?xml version="1.0" encoding="utf-8"?>
<!-- Generator: Adobe Illustrator 19.2.1, SVG Export Plug-In . SVG Version: 6.00 Build 0)  -->
<svg version="1.1" id="Layer_1" xmlns="http://www.w3.org/2000/svg" xmlns:xlink="http://www.w3.org/1999/xlink" x="0px" y="0px"
	 viewBox="0 0 150 150" style="enable-background:new 0 0 150 150;" xml:space="preserve">
<style type="text/css">
	.st0{fill:url(#SVGID_1_);}
	.st1{fill:#FFFFFF;}
</style>
<g>
	
		<linearGradient id="SVGID_1_" gradientUnits="userSpaceOnUse" x1="0.4891" y1="150.0078" x2="0.5246" y2="150.0078" gradientTransform="matrix(2965.5571 -2965.5571 2965.5571 2965.5571 -446289.1563 -443276.8438)">
		<stop  offset="0" style="stop-color:#E65100"/>
		<stop  offset="1" style="stop-color:#FF9800"/>
	</linearGradient>
	<path class="st0" d="M18.3,112.5l31-31L18.5,50.7l0-17.6L34,32.5l32.1,32.1l5.9-5.9l-0.6-2.2c-0.8-2.9-1.2-5.8-1.2-8.9
		c0-4.3,0.8-8.5,2.5-12.4c1.6-3.8,3.9-7.2,6.8-10.1s6.3-5.2,10.1-6.8c3.9-1.7,8.1-2.5,12.4-2.5c4.3,0,8.5,0.8,12.4,2.5
		c3.8,1.6,7.2,3.9,10.1,6.8s5.2,6.3,6.8,10.1c1.7,3.9,2.5,8.1,2.5,12.4s-0.8,8.5-2.5,12.4c-1.6,3.8-3.9,7.2-6.8,10.1
		c-2.9,2.9-6.3,5.2-10.1,6.8c-3.9,1.7-8.1,2.5-12.4,2.5c-4,0-7.9-0.7-11.6-2.2l-2.4-0.9L83,81.5l31,31l0.3,16.6l-17.2,0.2l-31-31
		l-4.2,4.2l-0.2,13.7l-14,0.5l-12.7,12.7l-16.6,0.3L18.3,112.5z"/>
	<path d="M122.4,42.8c0.8,5.8-3.4,13.4-10.9,13.8C104,57,98.8,50.7,98.4,44.3s4.6-12,11.3-12.4S121.6,36.4,122.4,42.8z"/>
	<ellipse transform="matrix(0.7071 -0.7071 0.7071 0.7071 2.1613 90.225)" class="st1" cx="110" cy="42.5" rx="9.2" ry="9.2"/>
	<path class="st1" d="M95.5,133.2l22.8-0.2l-0.4-22.2L88.5,81.5L89,81c4,1.6,8.4,2.4,13,2.4c19.8,0,35.8-16,35.8-35.8
		c0-9.9-4-18.8-10.5-25.3S111.9,11.9,102,11.9c-19.8,0-35.8,16-35.8,35.8c0,3.5,0.5,6.8,1.4,9.9l-1.5,1.5L35.6,28.5l-20.9,0.8
		l-0.1,23l29.2,29.2l-29.3,29.3l0.2,22.8l22.2-0.4l12.7-12.7l16.2-0.6l0.2-15.8l0.3-0.3L95.5,133.2z M57.9,112.4l-8.7,0.3l-3.1,0.1
		l-2.2,2.2l-10.5,10.5l-11.1,0.2l-0.1-11.6l27-27l5.5-5.5L49.3,76L22.4,49.1l0-12.2l10-0.4l28.1,28.1l5.5,5.5l5.5-5.5l1.5-1.5
		l3.3-3.3l-1.3-4.4c-0.7-2.5-1.1-5.1-1.1-7.8c0-3.8,0.7-7.4,2.2-10.9c0.7-1.7,1.6-3.2,2.6-4.7c1-1.5,2.2-2.9,3.4-4.1
		c1.3-1.3,2.7-2.4,4.1-3.4c1.5-1,3.1-1.9,4.7-2.6c3.4-1.5,7.1-2.2,10.9-2.2c3.8,0,7.4,0.7,10.9,2.2c1.7,0.7,3.2,1.6,4.7,2.6
		c1.5,1,2.9,2.2,4.1,3.4c1.3,1.3,2.4,2.7,3.4,4.1c1,1.5,1.9,3.1,2.6,4.7c1.5,3.4,2.2,7.1,2.2,10.9c0,3.8-0.7,7.4-2.2,10.9
		c-0.7,1.7-1.6,3.2-2.6,4.7c-1,1.5-2.2,2.9-3.4,4.1c-1.3,1.3-2.7,2.4-4.1,3.4c-1.5,1-3.1,1.9-4.7,2.6c-3.4,1.5-7.1,2.2-10.9,2.2
		c-3.5,0-6.9-0.6-10.2-1.9l-4.8-1.9l-3.6,3.6L83,76l-5.5,5.5l5.5,5.5l27.1,27.1l0.2,11.1l-11.6,0.1L69.1,95.7l-0.1,0l-10.9,0.2
		L57.9,112.4z"/>
	<path d="M102.1,12.2c9.9,0,18.8,4,25.3,10.5c6.5,6.5,10.5,15.4,10.5,25.3c0,19.8-16,35.8-35.8,35.8h0c-4.6,0-9-0.9-13-2.4l-0.5,0.5
		l29.3,29.3l0.4,22.2l-22.8,0.2l-29.3-29.3l-0.3,0.3l-0.2,15.8l-16.2,0.6l-12.7,12.7L14.7,134l-0.2-22.8l29.3-29.3L14.6,52.7l0.1-23
		l20.9-0.8l30.6,30.6l1.5-1.5c-0.9-3.2-1.4-6.5-1.4-9.9C66.3,28.2,82.3,12.2,102.1,12.2 M102.1,7.8c-2.7,0-5.4,0.3-8.1,0.8
		c-2.6,0.5-5.1,1.3-7.6,2.3c-2.4,1-4.7,2.3-6.8,3.7c-2.1,1.4-4.1,3.1-5.9,4.9c-1.8,1.8-3.5,3.8-4.9,5.9C67.3,27.7,66,30,65,32.3
		c-1,2.4-1.8,5-2.3,7.6c-0.5,2.6-0.8,5.4-0.8,8.1c0,0.3,0,0.6,0,0.9L38.7,25.8c-0.8-0.8-1.9-1.3-3.1-1.3c-0.1,0-0.1,0-0.2,0
		l-20.9,0.8c-1.1,0-2.2,0.5-3,1.3c-0.8,0.8-1.2,1.9-1.2,3l-0.1,23c0,1.2,0.5,2.3,1.3,3.1l26,26l-26.2,26.2c-0.8,0.8-1.3,2-1.3,3.2
		l0.2,22.8c0,1.2,0.5,2.3,1.3,3.1c0.8,0.8,1.9,1.2,3.1,1.2c0,0,0.1,0,0.1,0l22.2-0.4c1.1,0,2.2-0.5,3-1.3l11.5-11.5l14.4-0.5
		c1.1,0,2.2-0.5,3-1.3c0.8-0.8,1.2-1.9,1.3-3l0.1-5.9l22.2,22.2c0.8,0.8,1.9,1.3,3.1,1.3c0,0,0,0,0,0l22.8-0.2
		c1.2,0,2.3-0.5,3.1-1.3c0.8-0.8,1.3-2,1.2-3.1l-0.4-22.2c0-1.1-0.5-2.2-1.3-3l-19.9-19.9c0.3,0,0.6,0,0.9,0c2.7,0,5.4-0.3,8.1-0.8
		c2.6-0.5,5.1-1.3,7.6-2.3c2.4-1,4.7-2.3,6.8-3.7c2.1-1.4,4.1-3.1,5.9-4.9c1.8-1.8,3.5-3.8,4.9-5.9c1.5-2.1,2.7-4.4,3.7-6.8
		c1-2.4,1.8-5,2.3-7.6c0.5-2.6,0.8-5.4,0.8-8.1s-0.3-5.4-0.8-8.1c-0.5-2.6-1.3-5.1-2.3-7.6c-1-2.4-2.3-4.7-3.7-6.8
		c-1.4-2.1-3.1-4.1-4.9-5.9c-1.8-1.8-3.8-3.5-5.9-4.9c-2.1-1.5-4.4-2.7-6.8-3.7c-2.4-1-5-1.8-7.6-2.3C107.5,8.1,104.8,7.8,102.1,7.8
		z"/>
</g>
</svg>
